<svg width="21" height="21" viewBox="0 0 21 21" fill="none" xmlns="http://www.w3.org/2000/svg">
<g opacity="0.68">
<path fill-rule="evenodd" clip-rule="evenodd" d="M3.5411 12.96H7.35821C7.30145 12.3167 7.27148 11.6473 7.27148 10.96C7.27148 10.2726 7.30145 9.60318 7.35821 8.95996H3.5411C3.36537 9.59668 3.27148 10.2674 3.27148 10.96C3.27148 11.6526 3.36537 12.3232 3.5411 12.96ZM4.13653 14.46C5.07565 16.2366 6.70745 17.5905 8.67232 18.1622C8.18023 17.2124 7.78866 15.9368 7.546 14.46H4.13653ZM18.0019 12.96C18.1776 12.3232 18.2715 11.6526 18.2715 10.96C18.2715 10.2674 18.1776 9.59668 18.0019 8.95996H14.1848C14.2415 9.60318 14.2715 10.2726 14.2715 10.96C14.2715 11.6473 14.2415 12.3167 14.1848 12.96H18.0019ZM17.4064 14.46H13.997C13.7543 15.9368 13.3627 17.2124 12.8706 18.1622C14.8355 17.5905 16.4673 16.2366 17.4064 14.46ZM8.8419 12.96H12.7011C12.748 12.3389 12.7715 11.6723 12.7715 10.96C12.7715 10.2477 12.748 9.58099 12.7011 8.95996H8.8419C8.79495 9.58099 8.77148 10.2477 8.77148 10.96C8.77148 11.6723 8.79495 12.3389 8.8419 12.96ZM9.01492 14.46C9.3178 16.3429 9.90333 17.6762 10.7715 18.46C11.6396 17.6762 12.2252 16.3429 12.528 14.46H9.01492ZM4.13653 7.45996H7.546C7.78866 5.98313 8.18023 4.70756 8.67232 3.75769C6.70745 4.32939 5.07565 5.68335 4.13653 7.45996ZM17.4064 7.45996C16.4673 5.68335 14.8355 4.32939 12.8706 3.75769C13.3627 4.70756 13.7543 5.98313 13.997 7.45996H17.4064ZM9.01492 7.45996H12.528C12.2252 5.57706 11.6396 4.24373 10.7715 3.45996C9.90333 4.24373 9.3178 5.57706 9.01492 7.45996ZM10.7715 19.96C5.80092 19.96 1.77148 15.9305 1.77148 10.96C1.77148 5.9894 5.80092 1.95996 10.7715 1.95996C15.742 1.95996 19.7715 5.9894 19.7715 10.96C19.7715 15.9305 15.742 19.96 10.7715 19.96Z" fill="#F9F9F9"/>
</g>
</svg>
