<svg width="25" height="25" viewBox="0 0 25 25" fill="none" xmlns="http://www.w3.org/2000/svg">
<path d="M1.717 8.56639H0.682617V1.00073H8.24667V2.03512H1.717V8.56639Z" fill="#FF6700"/>
<path d="M8.30002 24.9492H0.734375V17.3835H1.76876V23.9148H8.30002V24.9492Z" fill="#FF6700"/>
<path d="M24.6828 24.8977H17.1172V23.8633H23.6485V17.332H24.6828V24.8977Z" fill="#FF6700"/>
<path d="M24.6311 8.51327H23.5967V1.98361H17.0654V0.949219H24.6311V8.51327Z" fill="#FF6700"/>
<path d="M4.27304 2.43131L2.38477 4.31958L2.60431 4.53912L4.49258 2.65085L4.27304 2.43131Z" fill="#FF6700"/>
<path d="M5.3388 3.81184L3.75879 5.39185L3.97833 5.61139L5.55834 4.03138L5.3388 3.81184Z" fill="#FF6700"/>
<path d="M6.40178 5.17414L5.12891 6.44702L5.34845 6.66656L6.62133 5.39368L6.40178 5.17414Z" fill="#FF6700"/>
<path d="M7.46852 6.55565L6.50391 7.52026L6.72345 7.7398L7.68805 6.77519L7.46852 6.55565Z" fill="#FF6700"/>
<path d="M8.53541 7.92748L7.87793 8.58496L8.09747 8.8045L8.75495 8.14702L8.53541 7.92748Z" fill="#FF6700"/>
<path d="M9.60312 9.30703L9.25391 9.65625L9.47345 9.87579L9.82266 9.52657L9.60312 9.30703Z" fill="#FF6700"/>
<path d="M2.70196 21.1352L2.48242 21.3547L4.37069 23.243L4.59023 23.0235L2.70196 21.1352Z" fill="#FF6700"/>
<path d="M4.07696 20.0693L3.85742 20.2888L5.43743 21.8688L5.65697 21.6493L4.07696 20.0693Z" fill="#FF6700"/>
<path d="M5.45098 19.0041L5.23145 19.2236L6.50432 20.4965L6.72386 20.277L5.45098 19.0041Z" fill="#FF6700"/>
<path d="M6.82403 17.935L6.60449 18.1545L7.5691 19.1192L7.78864 18.8996L6.82403 17.935Z" fill="#FF6700"/>
<path d="M8.19708 16.8713L7.97754 17.0908L8.63502 17.7483L8.85456 17.5288L8.19708 16.8713Z" fill="#FF6700"/>
<path d="M9.57403 15.8124L9.35449 16.032L9.70371 16.3812L9.92325 16.1617L9.57403 15.8124Z" fill="#FF6700"/>
<path d="M22.8951 21.1422L21.0068 23.0305L21.2264 23.2501L23.1146 21.3618L22.8951 21.1422Z" fill="#FF6700"/>
<path d="M21.5195 20.0694L19.9395 21.6494L20.159 21.869L21.739 20.2889L21.5195 20.0694Z" fill="#FF6700"/>
<path d="M20.1459 19.0037L18.873 20.2766L19.0926 20.4962L20.3655 19.2233L20.1459 19.0037Z" fill="#FF6700"/>
<path d="M18.7664 17.9309L17.8018 18.8955L18.0213 19.115L18.9859 18.1504L18.7664 17.9309Z" fill="#FF6700"/>
<path d="M17.3987 16.8779L16.7412 17.5354L16.9608 17.7549L17.6182 17.0975L17.3987 16.8779Z" fill="#FF6700"/>
<path d="M16.023 15.8068L15.6738 16.156L15.8934 16.3755L16.2426 16.0263L16.023 15.8068Z" fill="#FF6700"/>
<path d="M21.2235 2.43182L21.0039 2.65137L22.8922 4.53964L23.1117 4.32009L21.2235 2.43182Z" fill="#FF6700"/>
<path d="M20.157 3.80439L19.9375 4.02393L21.5175 5.60393L21.737 5.38439L20.157 3.80439Z" fill="#FF6700"/>
<path d="M19.0897 5.17572L18.8701 5.39526L20.143 6.66814L20.3625 6.4486L19.0897 5.17572Z" fill="#FF6700"/>
<path d="M18.0242 6.54925L17.8047 6.7688L18.7693 7.73341L18.9888 7.51387L18.0242 6.54925Z" fill="#FF6700"/>
<path d="M16.9578 7.92011L16.7383 8.13965L17.3958 8.79713L17.6153 8.57759L16.9578 7.92011Z" fill="#FF6700"/>
<path d="M15.8934 9.29779L15.6738 9.51733L16.023 9.86655L16.2426 9.64701L15.8934 9.29779Z" fill="#FF6700"/>
</svg>
