<svg width="16" height="16" viewBox="0 0 16 16" fill="none" xmlns="http://www.w3.org/2000/svg">
<g opacity="0.66" clip-path="url(#clip0_40_582)">
<path d="M5.83594 8.86447C5.83594 8.67644 5.68342 8.52411 5.49524 8.52411H4.30633C4.11837 8.52411 3.96582 8.67644 3.96582 8.86447V10.0532C3.96582 10.2415 4.11837 10.3939 4.30633 10.3939H5.49524C5.68342 10.3939 5.83594 10.2415 5.83594 10.0532V8.86447Z" fill="white"/>
<path d="M8.80646 8.86447C8.80646 8.67644 8.65391 8.52411 8.4661 8.52411H7.27704C7.08907 8.52411 6.93652 8.67644 6.93652 8.86447V10.0532C6.93652 10.2415 7.08907 10.3939 7.27704 10.3939H8.4661C8.65391 10.3939 8.80646 10.2415 8.80646 10.0532V8.86447Z" fill="white"/>
<path d="M11.7783 8.86447C11.7783 8.67644 11.6258 8.52411 11.4378 8.52411H10.2489C10.0607 8.52411 9.9082 8.67644 9.9082 8.86447V10.0532C9.9082 10.2415 10.0607 10.3939 10.2489 10.3939H11.4378C11.6258 10.3939 11.7783 10.2415 11.7783 10.0532V8.86447Z" fill="white"/>
<path d="M5.83594 11.8365C5.83594 11.6481 5.68342 11.4959 5.49524 11.4959H4.30633C4.11837 11.4959 3.96582 11.6481 3.96582 11.8365V13.025C3.96582 13.2131 4.11837 13.3655 4.30633 13.3655H5.49524C5.68342 13.3655 5.83594 13.2131 5.83594 13.025V11.8365Z" fill="white"/>
<path d="M8.80646 11.8365C8.80646 11.6481 8.65391 11.4959 8.4661 11.4959H7.27704C7.08907 11.4959 6.93652 11.6481 6.93652 11.8365V13.025C6.93652 13.2131 7.08907 13.3655 7.27704 13.3655H8.4661C8.65391 13.3655 8.80646 13.2131 8.80646 13.025V11.8365Z" fill="white"/>
<path d="M11.7783 11.8365C11.7783 11.6481 11.6258 11.4959 11.438 11.4959H10.2489C10.0607 11.4959 9.9082 11.6481 9.9082 11.8365V13.025C9.9082 13.2131 10.0607 13.3655 10.2489 13.3655H11.438C11.6258 13.3655 11.7783 13.2131 11.7783 13.025V11.8365Z" fill="white"/>
<path d="M13.9041 2.25518V4.0709C13.9041 4.89159 13.2384 5.55293 12.4178 5.55293H11.4802C10.6596 5.55293 9.98495 4.89159 9.98495 4.0709V2.24866H5.75882V4.0709C5.75882 4.89159 5.08425 5.55293 4.26375 5.55293H3.32594C2.50541 5.55293 1.83966 4.89159 1.83966 4.0709V2.25518C1.12251 2.27679 0.533203 2.87022 0.533203 3.59961V14.2406C0.533203 14.9837 1.13551 15.594 1.87862 15.594H13.8652C14.6072 15.594 15.2106 14.9825 15.2106 14.2406V3.59961C15.2106 2.87022 14.6213 2.27679 13.9041 2.25518ZM13.4686 13.578C13.4686 13.8991 13.2083 14.1596 12.887 14.1596H2.83116C2.5099 14.1596 2.24951 13.8991 2.24951 13.578V8.08151C2.24951 7.76024 2.50986 7.49971 2.83116 7.49971H12.887C13.2082 7.49971 13.4686 7.76024 13.4686 8.08151L13.4686 13.578Z" fill="white"/>
<path d="M3.32226 4.57928H4.2497C4.53121 4.57928 4.75946 4.35137 4.75946 4.06987V1.09322C4.75946 0.811683 4.53121 0.583618 4.2497 0.583618H3.32226C3.04072 0.583618 2.8125 0.811683 2.8125 1.09322V4.06987C2.8125 4.35137 3.04072 4.57928 3.32226 4.57928Z" fill="white"/>
<path d="M11.4677 4.57928H12.3952C12.6765 4.57928 12.9048 4.35137 12.9048 4.06987V1.09322C12.9048 0.811683 12.6765 0.583618 12.3952 0.583618H11.4677C11.1863 0.583618 10.958 0.811683 10.958 1.09322V4.06987C10.958 4.35137 11.1863 4.57928 11.4677 4.57928Z" fill="white"/>
</g>
<defs>
<clipPath id="clip0_40_582">
<rect width="15.0101" height="15.0101" fill="white" transform="translate(0.367188 0.583984)"/>
</clipPath>
</defs>
</svg>
