<svg width="16" height="14" viewBox="0 0 16 14" fill="none" xmlns="http://www.w3.org/2000/svg">
<g clip-path="url(#clip0_40_450)">
<path d="M5.44957 13.6592H15.5371V3.57166H14.1579V12.28H5.44957V13.6592Z" fill="white"/>
<path d="M12.9124 8.57514L13.2051 8.86786L10.6874 11.3856L10.3947 11.0928L12.9124 8.57514Z" fill="white"/>
<path d="M11.0794 7.15412L11.3721 7.44684L9.2654 9.55351L8.97268 9.26079L11.0794 7.15412Z" fill="white"/>
<path d="M9.24732 5.73163L9.54004 6.02435L7.84287 7.72152L7.55015 7.4288L9.24732 5.73163Z" fill="white"/>
<path d="M7.41724 4.31061L7.70996 4.60333L6.42381 5.88948L6.13109 5.59676L7.41724 4.31061Z" fill="white"/>
<path d="M5.58521 2.88801L5.87793 3.18073L5.00129 4.05737L4.70857 3.76465L5.58521 2.88801Z" fill="white"/>
<path d="M3.75318 1.46759L4.0459 1.76031L3.58028 2.22594L3.28756 1.93322L3.75318 1.46759Z" fill="white"/>
</g>
<defs>
<clipPath id="clip0_40_450">
<rect width="32" height="32" fill="white" transform="matrix(-1 0 0 1 15.6055 -18.3408)"/>
</clipPath>
</defs>
</svg>
