<svg width="16" height="14" viewBox="0 0 16 14" fill="none" xmlns="http://www.w3.org/2000/svg">
<g clip-path="url(#clip0_40_446)">
<path d="M10.7614 13.6592H0.673828V3.57166H2.05301V12.28H10.7614V13.6592Z" fill="white"/>
<path d="M3.29858 8.57514L3.00586 8.86786L5.52356 11.3856L5.81628 11.0928L3.29858 8.57514Z" fill="white"/>
<path d="M5.13159 7.15412L4.83887 7.44684L6.94554 9.55351L7.23826 9.26079L5.13159 7.15412Z" fill="white"/>
<path d="M6.96362 5.73163L6.6709 6.02435L8.36807 7.72152L8.66079 7.4288L6.96362 5.73163Z" fill="white"/>
<path d="M8.7937 4.31061L8.50098 4.60333L9.78712 5.88948L10.0798 5.59676L8.7937 4.31061Z" fill="white"/>
<path d="M10.6257 2.88801L10.333 3.18073L11.2097 4.05737L11.5024 3.76465L10.6257 2.88801Z" fill="white"/>
<path d="M12.4578 1.46759L12.165 1.76031L12.6307 2.22594L12.9234 1.93322L12.4578 1.46759Z" fill="white"/>
</g>
<defs>
<clipPath id="clip0_40_446">
<rect width="32" height="32" fill="white" transform="translate(0.605469 -18.3408)"/>
</clipPath>
</defs>
</svg>
