<svg width="16" height="14" viewBox="0 0 16 14" fill="none" xmlns="http://www.w3.org/2000/svg">
<g clip-path="url(#clip0_40_452)">
<path d="M5.44957 0.374008H15.5371V10.4615H14.1579V1.75319H5.44957V0.374008Z" fill="white"/>
<path d="M12.9124 5.45803L13.2051 5.16531L10.6874 2.64762L10.3947 2.94034L12.9124 5.45803Z" fill="white"/>
<path d="M11.0794 6.87905L11.3721 6.58633L9.2654 4.47966L8.97268 4.77238L11.0794 6.87905Z" fill="white"/>
<path d="M9.24732 8.30154L9.54004 8.00882L7.84287 6.31165L7.55015 6.60437L9.24732 8.30154Z" fill="white"/>
<path d="M7.41724 9.72256L7.70996 9.42984L6.42381 8.14369L6.13109 8.43641L7.41724 9.72256Z" fill="white"/>
<path d="M5.58521 11.1452L5.87793 10.8524L5.00129 9.9758L4.70857 10.2685L5.58521 11.1452Z" fill="white"/>
<path d="M3.75318 12.5656L4.0459 12.2729L3.58028 11.8072L3.28756 12.1L3.75318 12.5656Z" fill="white"/>
</g>
<defs>
<clipPath id="clip0_40_452">
<rect width="32" height="32" fill="white" transform="matrix(-1 0 0 -1 15.6055 32.374)"/>
</clipPath>
</defs>
</svg>
