<svg width="16" height="14" viewBox="0 0 16 14" fill="none" xmlns="http://www.w3.org/2000/svg">
<g clip-path="url(#clip0_40_448)">
<path d="M10.7614 0.374008H0.673828V10.4615H2.05301V1.75319H10.7614V0.374008Z" fill="white"/>
<path d="M3.29858 5.45803L3.00586 5.16531L5.52356 2.64762L5.81628 2.94034L3.29858 5.45803Z" fill="white"/>
<path d="M5.13159 6.87905L4.83887 6.58633L6.94554 4.47966L7.23826 4.77238L5.13159 6.87905Z" fill="white"/>
<path d="M6.96362 8.30154L6.6709 8.00882L8.36807 6.31165L8.66079 6.60437L6.96362 8.30154Z" fill="white"/>
<path d="M8.7937 9.72256L8.50098 9.42984L9.78712 8.14369L10.0798 8.43641L8.7937 9.72256Z" fill="white"/>
<path d="M10.6257 11.1452L10.333 10.8524L11.2097 9.9758L11.5024 10.2685L10.6257 11.1452Z" fill="white"/>
<path d="M12.4578 12.5656L12.165 12.2729L12.6307 11.8072L12.9234 12.1L12.4578 12.5656Z" fill="white"/>
</g>
<defs>
<clipPath id="clip0_40_448">
<rect width="32" height="32" fill="white" transform="matrix(1 0 0 -1 0.605469 32.374)"/>
</clipPath>
</defs>
</svg>
