<svg width="20" height="20" viewBox="0 0 20 20" fill="none" xmlns="http://www.w3.org/2000/svg">
<path d="M10.0675 13.0861C11.7589 13.0861 13.1301 11.715 13.1301 10.0235C13.1301 8.33211 11.7589 6.96094 10.0675 6.96094C8.37606 6.96094 7.00488 8.33211 7.00488 10.0235C7.00488 11.715 8.37606 13.0861 10.0675 13.0861Z" stroke="white" stroke-width="0.91878" stroke-linecap="round" stroke-linejoin="round"/>
<path d="M14.1315 16.149C12.7669 17.0546 11.139 17.4786 9.50597 17.3537C7.87298 17.2287 6.32847 16.562 5.11752 15.4594C3.90658 14.3567 3.09855 12.8812 2.82165 11.267C2.54476 9.65282 2.81485 7.99239 3.58909 6.54919C4.36332 5.10598 5.59734 3.96266 7.09534 3.30065C8.59334 2.63863 10.2695 2.49584 11.8579 2.89492C13.4463 3.29401 14.856 4.21211 15.8632 5.50356C16.8703 6.79501 17.4174 8.38582 17.4176 10.0236C17.4176 11.715 16.805 13.0862 15.2737 13.0862C13.7424 13.0862 13.1299 11.715 13.1299 10.0236V6.96099" stroke="white" stroke-width="0.91878" stroke-linecap="round" stroke-linejoin="round"/>
</svg>
