<svg width="21" height="20" viewBox="0 0 21 20" fill="none" xmlns="http://www.w3.org/2000/svg">
<path d="M7.67758 10.55L14.5621 16.6084C14.6417 16.6785 14.7382 16.7267 14.8421 16.7483C14.946 16.7699 15.0537 16.7641 15.1547 16.7315C15.2557 16.699 15.3465 16.6407 15.4182 16.5625C15.4899 16.4843 15.5401 16.3888 15.5638 16.2854L18.4437 3.71858C18.4686 3.60993 18.4634 3.49654 18.4286 3.39064C18.3938 3.28473 18.3308 3.19033 18.2463 3.11759C18.1618 3.04486 18.0591 2.99656 17.9492 2.97789C17.8393 2.95922 17.7264 2.9709 17.6227 3.01165L3.49207 8.56296C3.36891 8.61134 3.26474 8.6983 3.19513 8.81082C3.12552 8.92335 3.09422 9.05539 3.10591 9.18718C3.1176 9.31898 3.17166 9.44345 3.25998 9.54196C3.34831 9.64048 3.46617 9.70774 3.59591 9.73369L7.67758 10.55Z" stroke="white" stroke-width="0.91878" stroke-linecap="round" stroke-linejoin="round"/>
<path d="M7.67773 10.55L18.0992 3.02344" stroke="white" stroke-width="0.91878" stroke-linecap="round" stroke-linejoin="round"/>
<path d="M11.116 13.5755L8.72337 15.9682C8.63771 16.0539 8.52857 16.1122 8.40975 16.1358C8.29093 16.1595 8.16778 16.1473 8.05585 16.101C7.94393 16.0546 7.84827 15.9761 7.78096 15.8754C7.71366 15.7746 7.67773 15.6562 7.67773 15.5351V10.5498" stroke="white" stroke-width="0.91878" stroke-linecap="round" stroke-linejoin="round"/>
</svg>
