<svg width="27" height="29" viewBox="0 0 27 29" fill="none" xmlns="http://www.w3.org/2000/svg">
<path fill-rule="evenodd" clip-rule="evenodd" d="M22.4963 6.62939C23.1258 6.62939 23.6849 6.91735 24.0366 7.36274L13.8205 15.5381L3.69544 7.5112C4.03398 6.98237 4.64457 6.62939 5.34156 6.62939H22.4963ZM3.41406 20.2386V8.96188L10.6791 14.7214L3.42904 20.469C3.41916 20.3935 3.41406 20.3166 3.41406 20.2386ZM4.07849 21.6279C4.41677 21.9081 4.8584 22.0777 5.34156 22.0777H22.4963C22.9116 22.0777 23.2962 21.9524 23.6108 21.7393L15.8909 15.5615L14.5026 16.6724C14.11 16.9866 13.538 16.9879 13.1439 16.6754L11.7347 15.5582L4.07849 21.6279ZM16.9407 14.7214L24.3711 20.6675C24.4055 20.5299 24.4238 20.3863 24.4238 20.2386V8.73313L16.9407 14.7214Z" fill="white"/>
</svg>
