<?xml version="1.0" encoding="UTF-8"?> <svg xmlns="http://www.w3.org/2000/svg" width="81" height="81" viewBox="0 0 81 81" fill="none"><g clip-path="url(#clip0_40_255)"><path d="M80.0889 0.638672H0.0888672V80.6387H80.0889V0.638672Z" fill="#0D0802"></path><path d="M16.8528 14.2626C16.7416 14.215 16.6178 14.1785 16.4877 14.1452C16.5226 14.1277 16.5607 14.1118 16.594 14.0912C16.8829 13.9182 17.0924 13.7071 17.221 13.4563C17.3496 13.2055 17.4131 12.9356 17.4131 12.6499C17.4131 12.1483 17.2401 11.7547 16.8956 11.4706C16.5512 11.188 16.075 11.0452 15.467 11.0452H10.4893L10.9893 14.2436L10.4893 17.6166H15.6512C16.1416 17.6166 16.5512 17.5356 16.8781 17.3706C17.2051 17.2071 17.4496 16.9817 17.6099 16.696C17.7702 16.4102 17.8512 16.088 17.8512 15.7325C17.8512 15.3769 17.7686 15.0912 17.602 14.8436C17.4353 14.596 17.1861 14.4007 16.8528 14.261V14.2626ZM14.9781 12.6769C15.0718 12.7642 15.1178 12.8753 15.1178 13.0102C15.1178 13.1563 15.067 13.2769 14.9639 13.369C14.8623 13.4626 14.7353 13.5087 14.5829 13.5087H13.0242L12.8654 12.5452H14.5829C14.7527 12.5452 14.8845 12.5896 14.9766 12.6769H14.9781ZM15.3893 15.9674C15.2781 16.069 15.1258 16.1214 14.9337 16.1214H12.8559L13.0321 14.9817H14.9162C15.1274 14.9817 15.2861 15.0372 15.394 15.1483C15.502 15.2595 15.5559 15.3944 15.5559 15.5515C15.5559 15.7261 15.5004 15.8658 15.3893 15.9674Z" fill="white"></path><path d="M20.8746 11.0469H18.6143V17.6199H24.7476V15.604H20.8746V11.0469Z" fill="white"></path><path d="M27.7888 11.0469L24.9062 17.6183H27.3158L27.765 16.5135H30.8269L31.2761 17.6183H33.6856L30.8031 11.0469H27.7888ZM28.4967 14.7183L29.2967 12.7564L30.0967 14.7183H28.4983H28.4967Z" fill="white"></path><path d="M36.5563 12.996C36.7991 12.877 37.0896 12.8166 37.4277 12.8166C37.7309 12.8166 37.996 12.8595 38.2214 12.9436C38.4468 13.0277 38.6293 13.1516 38.769 13.3119C38.9087 13.4722 39.0055 13.6674 39.0579 13.8944H41.3277C41.2579 13.2928 41.0515 12.7674 40.7103 12.3166C40.369 11.8674 39.9166 11.5166 39.3563 11.2658C38.796 11.015 38.1531 10.8896 37.4277 10.8896C36.6452 10.8896 35.961 11.0325 35.3769 11.3182C34.7928 11.6039 34.3388 12.0055 34.015 12.523C33.6912 13.0404 33.5293 13.6436 33.5293 14.3325C33.5293 15.0214 33.6912 15.6246 34.015 16.142C34.3388 16.6595 34.7928 17.0611 35.3769 17.3468C35.961 17.6325 36.6452 17.7754 37.4277 17.7754C38.1515 17.7754 38.7944 17.65 39.3563 17.3992C39.9166 17.1484 40.369 16.7976 40.7103 16.3484C41.0515 15.8992 41.2579 15.3722 41.3277 14.7706H39.0579C39.0055 15.0103 38.9087 15.2103 38.769 15.3706C38.6293 15.5309 38.4468 15.6516 38.2214 15.7293C37.996 15.8087 37.7325 15.8484 37.4277 15.8484C37.0896 15.8484 36.7975 15.7865 36.5563 15.6643C36.3134 15.542 36.1277 15.3674 35.9991 15.1436C35.8706 14.9182 35.8071 14.6484 35.8071 14.3325C35.8071 14.0166 35.8706 13.7452 35.9991 13.5182C36.1277 13.2896 36.3134 13.1166 36.5563 12.9976V12.996Z" fill="white"></path><path d="M49.4861 17.6199L47.2051 13.7881L49.3988 11.0469H47.0321L44.3337 14.6215V11.0469H42.0908V17.6199H44.14L45.7845 15.5643L46.9273 17.6199H49.4861Z" fill="white"></path><path d="M20.9604 24.2768C20.7811 24.2006 20.5843 24.1371 20.3747 24.0832C20.4303 24.0546 20.4843 24.026 20.535 23.9959C21.0112 23.7117 21.3541 23.3641 21.5668 22.9498C21.7779 22.5371 21.8843 22.0943 21.8843 21.6228C21.8843 20.7959 21.6001 20.1498 21.0335 19.6832C20.4668 19.2165 19.6827 18.9832 18.6827 18.9832H10.4922L11.3144 24.2466L10.4922 29.799H18.9858C19.7938 29.799 20.4668 29.6641 21.0049 29.3959C21.543 29.1276 21.9446 28.7562 22.2096 28.2847C22.4747 27.8133 22.6065 27.2847 22.6065 26.699C22.6065 26.1133 22.47 25.6435 22.1954 25.2355C21.9208 24.8276 21.5096 24.507 20.962 24.2768H20.9604ZM17.8747 21.6673C18.0287 21.8117 18.1049 21.9943 18.1049 22.2149C18.1049 22.4546 18.0208 22.653 17.8525 22.8054C17.6843 22.9593 17.4747 23.0355 17.2255 23.0355H14.6604L14.3985 21.4498H17.2255C17.5049 21.4498 17.7208 21.5212 17.8747 21.6657V21.6673ZM18.5525 27.0832C18.37 27.2514 18.1192 27.3355 17.8033 27.3355H14.3827L14.6731 25.4609H17.7747C18.1208 25.4609 18.3827 25.553 18.5604 25.7355C18.7382 25.9181 18.8271 26.1387 18.8271 26.399C18.8271 26.6879 18.735 26.9165 18.5525 27.0847V27.0832Z" fill="white"></path><path d="M35.7139 21.415C35.1663 20.5642 34.3997 19.9039 33.4139 19.4324C32.4282 18.961 31.2774 18.7261 29.96 18.7261C28.6425 18.7261 27.4917 18.9626 26.506 19.4324C25.5203 19.9039 24.7536 20.5642 24.206 21.415C23.6584 22.2658 23.3838 23.2594 23.3838 24.3927C23.3838 25.5261 23.6584 26.5197 24.206 27.3705C24.7536 28.2213 25.5203 28.8832 26.506 29.3531C27.4917 29.8245 28.6425 30.0594 29.96 30.0594C31.2774 30.0594 32.4282 29.8229 33.4139 29.3531C34.3997 28.8816 35.1663 28.2213 35.7139 27.3705C36.2616 26.5197 36.5362 25.5277 36.5362 24.3927C36.5362 23.2578 36.2616 22.2658 35.7139 21.415ZM32.4473 25.6546C32.2219 26.0054 31.8965 26.2753 31.4743 26.4626C31.0505 26.6499 30.5457 26.7435 29.96 26.7435C29.3743 26.7435 28.8695 26.6499 28.4457 26.4626C28.0219 26.2753 27.6981 26.0054 27.4727 25.6546C27.2473 25.3039 27.133 24.8832 27.133 24.3927C27.133 23.9023 27.2457 23.4816 27.4727 23.1308C27.6981 22.78 28.0235 22.5102 28.4457 22.3229C28.8679 22.1356 29.3727 22.0419 29.96 22.0419C30.5473 22.0419 31.0505 22.1356 31.4743 22.3229C31.8965 22.5102 32.2219 22.78 32.4473 23.1308C32.6727 23.4816 32.7854 23.9023 32.7854 24.3927C32.7854 24.8832 32.6727 25.3039 32.4473 25.6546Z" fill="white"></path><path d="M49.4861 29.8007L44.9401 24.1912L49.2115 18.9849H44.6115L42.6845 21.5833L40.7179 18.9849H36.0607L40.3671 24.1912L35.7861 29.8007H40.3004L42.6179 26.7547L44.9147 29.8007H49.4861Z" fill="white"></path><path d="M42.265 70.1817C41.8126 70.1817 41.4142 70.0944 41.0713 69.9214C40.7285 69.7483 40.4618 69.5071 40.2697 69.1975C40.0792 68.888 39.9824 68.5277 39.9824 68.1182C39.9824 67.7087 40.0777 67.3483 40.2697 67.0388C40.4602 66.7293 40.7285 66.488 41.0713 66.315C41.4142 66.142 41.8126 66.0547 42.265 66.0547C42.7173 66.0547 43.1158 66.142 43.4586 66.315C43.8015 66.488 44.0697 66.7293 44.2602 67.0388C44.4507 67.3483 44.5475 67.7087 44.5475 68.1182C44.5475 68.5277 44.4523 68.888 44.2602 69.1975C44.0697 69.5071 43.8015 69.7483 43.4586 69.9214C43.1158 70.0944 42.7173 70.1817 42.265 70.1817ZM42.265 69.5547C42.5872 69.5547 42.865 69.496 43.0983 69.3801C43.3316 69.2626 43.5126 69.0975 43.6427 68.8817C43.7713 68.6658 43.8364 68.4118 43.8364 68.1182C43.8364 67.8245 43.7713 67.569 43.6427 67.3531C43.5142 67.1372 43.3316 66.9706 43.0983 66.8547C42.865 66.7372 42.5872 66.6801 42.265 66.6801C41.9427 66.6801 41.6697 66.7388 41.4348 66.8547C41.1999 66.9721 41.0173 67.1372 40.8888 67.3531C40.7602 67.569 40.6951 67.8229 40.6951 68.1182C40.6951 68.4134 40.7602 68.6674 40.8888 68.8817C41.0173 69.0975 41.1999 69.2642 41.4348 69.3801C41.6697 69.4975 41.9475 69.5547 42.265 69.5547Z" fill="white"></path><path d="M44.9827 68.8132H45.6938C45.7144 68.9719 45.7811 69.1116 45.8922 69.2322C46.0033 69.3529 46.1509 69.4449 46.335 69.51C46.5192 69.5751 46.7319 69.6084 46.9716 69.6084C47.3287 69.6084 47.6112 69.5529 47.8208 69.4417C48.0303 69.3306 48.1335 69.1783 48.1335 68.9878C48.1335 68.8322 48.0731 68.7148 47.9525 68.637C47.8319 68.5592 47.6144 68.5005 47.3001 68.4624L46.4398 68.3513C45.9589 68.2878 45.6096 68.1687 45.3922 67.9925C45.1747 67.8179 45.0652 67.5687 45.0652 67.2465C45.0652 67.0021 45.1382 66.791 45.2858 66.6116C45.4319 66.4338 45.6398 66.2957 45.9096 66.1973C46.1779 66.1005 46.4938 66.0513 46.8541 66.0513C47.2144 66.0513 47.5287 66.1037 47.8049 66.21C48.0811 66.3163 48.3017 66.464 48.4652 66.6529C48.6303 66.8417 48.7192 67.064 48.7335 67.3195H48.0223C48.0049 67.1783 47.9462 67.056 47.8446 66.9529C47.7446 66.8497 47.6081 66.7703 47.4382 66.7116C47.2684 66.6529 47.0684 66.6243 46.8382 66.6243C46.5128 66.6243 46.2525 66.6767 46.0573 66.783C45.862 66.8894 45.7652 67.0338 45.7652 67.2179C45.7652 67.3592 45.8223 67.4687 45.9382 67.5449C46.0525 67.6211 46.2541 67.6783 46.5398 67.7179L47.4097 67.8402C47.7668 67.8894 48.0493 67.956 48.2557 68.0386C48.462 68.1211 48.6096 68.2338 48.6985 68.3735C48.7874 68.5132 48.8319 68.6925 48.8319 68.9116C48.8319 69.1671 48.7541 69.3894 48.5985 69.5798C48.443 69.7703 48.2239 69.9179 47.943 70.0227C47.662 70.1275 47.3335 70.1798 46.9589 70.1798C46.5843 70.1798 46.2398 70.1227 45.9477 70.0068C45.6557 69.8925 45.4255 69.7322 45.2557 69.5259C45.0858 69.3211 44.9938 69.0814 44.9795 68.81L44.9827 68.8132Z" fill="white"></path><path d="M49.4873 66.1274H50.1873V70.1084H49.4873V66.1274Z" fill="white"></path><path d="M54.768 69.683L54.4823 69.7147V66.1274H55.1616V70.1084H54.2696L51.4775 66.5211L51.7585 66.4893V70.1084H51.0791V66.1274H51.9918L54.768 69.683Z" fill="white"></path><path d="M55.6924 66.1274H59.6829V66.7433H55.6924V66.1274ZM57.3384 66.4513H58.0384V70.1084H57.3384V66.4513Z" fill="white"></path><path d="M65.6313 68.5322C65.5964 68.8576 65.4821 69.1449 65.2885 69.3941C65.0948 69.6433 64.844 69.837 64.5329 69.9751C64.2218 70.1132 63.8662 70.1814 63.4662 70.1814C63.0202 70.1814 62.6297 70.0941 62.2932 69.9211C61.9567 69.7481 61.6948 69.5068 61.5075 69.1973C61.3202 68.8878 61.2266 68.5275 61.2266 68.1179C61.2266 67.7084 61.3202 67.3481 61.5075 67.0386C61.6948 66.729 61.9567 66.4878 62.2932 66.3148C62.6297 66.1417 63.0202 66.0544 63.4662 66.0544C63.8662 66.0544 64.2218 66.1227 64.5329 66.2608C64.844 66.3989 65.0964 66.591 65.2885 66.8386C65.4805 67.0862 65.5948 67.3751 65.6313 67.7036H64.925C64.8853 67.4909 64.8012 67.3084 64.6726 67.1576C64.544 67.0052 64.3758 66.8878 64.171 66.8052C63.9662 66.7227 63.7282 66.6798 63.4599 66.6798C63.1488 66.6798 62.8789 66.7386 62.6504 66.8544C62.4218 66.9719 62.2456 67.137 62.1218 67.3529C61.998 67.5687 61.9361 67.8227 61.9361 68.1179C61.9361 68.4132 61.998 68.6671 62.1218 68.8814C62.2456 69.0973 62.4218 69.264 62.6504 69.3798C62.8789 69.4973 63.1488 69.5544 63.4599 69.5544C63.7282 69.5544 63.9662 69.5132 64.171 69.4322C64.3758 69.3513 64.544 69.2338 64.6726 69.0798C64.8012 68.9259 64.8853 68.7433 64.925 68.5306H65.6313V68.5322Z" fill="white"></path><path d="M67.8552 70.1816C67.4901 70.1816 67.1711 70.1149 66.8965 69.9831C66.6219 69.8514 66.4076 69.6657 66.2536 69.4292C66.0996 69.1927 66.0234 68.9181 66.0234 68.607C66.0234 68.2958 66.0996 68.0165 66.2536 67.7816C66.4076 67.5466 66.6219 67.3625 66.8965 67.2292C67.1711 67.0958 67.4901 67.0308 67.8552 67.0308C68.2203 67.0308 68.5393 67.0974 68.8139 67.2292C69.0885 67.3609 69.3028 67.5466 69.4568 67.7816C69.6107 68.0165 69.6869 68.2911 69.6869 68.607C69.6869 68.9228 69.6107 69.1927 69.4568 69.4292C69.3028 69.6657 69.0885 69.8514 68.8139 69.9831C68.5393 70.1149 68.2203 70.1816 67.8552 70.1816ZM67.8552 69.6403C68.0885 69.6403 68.2901 69.5974 68.4568 69.5133C68.625 69.4292 68.7552 69.3085 68.8472 69.1546C68.9393 69.0006 68.9853 68.8181 68.9853 68.6054C68.9853 68.3927 68.9393 68.2101 68.8472 68.0562C68.7552 67.9022 68.625 67.7831 68.4568 67.6974C68.2885 67.6117 68.0885 67.5704 67.8552 67.5704C67.6219 67.5704 67.425 67.6133 67.2552 67.6974C67.0853 67.7816 66.9552 67.9022 66.8631 68.0562C66.7711 68.2101 66.725 68.3927 66.725 68.6054C66.725 68.8181 66.7711 69.0006 66.8631 69.1546C66.9552 69.3085 67.0853 69.4276 67.2552 69.5133C67.425 69.599 67.625 69.6403 67.8552 69.6403Z" fill="white"></path></g><rect x="0.220117" y="0.769922" width="79.7375" height="79.7375" rx="2.49375" stroke="white" stroke-width="0.2625"></rect><defs><clipPath id="clip0_40_255"><rect x="0.0888672" y="0.638672" width="80" height="80" rx="2.625" fill="white"></rect></clipPath></defs></svg> 