<?xml version="1.0" encoding="UTF-8"?> <svg xmlns="http://www.w3.org/2000/svg" width="457" height="29" viewBox="0 0 457 29" fill="none"><path d="M18.8451 13.7997L19.4917 12.3112C21.3218 12.3783 22.8529 12.665 24.0852 13.1835C25.3113 13.702 26.2325 14.4158 26.8486 15.3308C27.4647 16.2459 27.7697 17.3378 27.7697 18.6127C27.7697 19.8877 27.4708 21.1138 26.8791 22.1691C26.2874 23.2245 25.3846 24.0541 24.1767 24.658C22.9689 25.262 21.4621 25.5609 19.6504 25.5609H0.605469L2.44775 13.1164L0.605469 1.3125H18.9671C21.2059 1.3125 22.9627 1.83712 24.2377 2.88026C25.5065 3.9234 26.1471 5.37525 26.1471 7.22972C26.1471 8.28505 25.9092 9.27939 25.4333 10.2066C24.9575 11.1339 24.1889 11.9147 23.1213 12.5491C22.0538 13.1835 20.6264 13.5983 18.839 13.7936L18.8451 13.7997ZM8.75535 23.7552L5.58933 20.0341H17.0028C17.7166 20.0341 18.2717 19.845 18.6865 19.4667C19.0952 19.0885 19.3026 18.5761 19.3026 17.9295C19.3026 17.35 19.1013 16.8498 18.7048 16.4411C18.3083 16.0323 17.7166 15.8249 16.9419 15.8249H7.37062V10.3957H15.7096C16.2708 10.3957 16.7405 10.2249 17.1188 9.87722C17.497 9.53561 17.6861 9.09027 17.6861 8.55345C17.6861 8.05933 17.5153 7.65065 17.1676 7.32734C16.8199 7.00403 16.3379 6.8454 15.7157 6.8454H5.62593L8.76145 3.12428L10.4085 13.1164L8.76145 23.7552H8.75535Z" fill="white"></path><path d="M38.9271 1.31885V21.8827L35.1755 18.131H53.2138V25.5672H30.582V1.31885H38.921H38.9271Z" fill="white"></path><path d="M75.5585 1.31885L86.1973 25.5672H77.3032L68.9276 5.0034H71.0627L62.6871 25.5672H53.793L64.4317 1.31885H75.5524H75.5585ZM61.5891 21.4923V14.8674H78.1084V21.4923H61.5891Z" fill="white"></path><path d="M114.387 15.0626C114.131 17.2831 113.368 19.2229 112.106 20.8822C110.843 22.5414 109.177 23.8347 107.109 24.7619C105.042 25.6891 102.669 26.1528 99.9966 26.1528C97.1112 26.1528 94.5858 25.622 92.4324 24.5667C90.279 23.5114 88.6014 22.029 87.4058 20.1197C86.2101 18.2103 85.6123 15.9898 85.6123 13.446C85.6123 10.9022 86.2101 8.67565 87.4058 6.77238C88.6014 4.86911 90.279 3.38067 92.4324 2.32534C94.5858 1.27 97.1112 0.739258 99.9966 0.739258C102.669 0.739258 105.042 1.20289 107.109 2.13012C109.177 3.05736 110.843 4.35059 112.106 6.00985C113.368 7.66911 114.125 9.609 114.387 11.8295H106.011C105.816 10.9877 105.462 10.2739 104.944 9.68219C104.425 9.09047 103.754 8.63907 102.925 8.32186C102.095 8.01075 101.119 7.85213 99.9966 7.85213C98.7461 7.85213 97.6724 8.07172 96.7818 8.51703C95.8851 8.95625 95.2018 9.60288 94.726 10.4386C94.2502 11.2804 94.0123 12.2809 94.0123 13.446C94.0123 14.6112 94.2502 15.6055 94.726 16.4351C95.2018 17.2648 95.8851 17.9053 96.7818 18.3567C97.6785 18.8081 98.7461 19.0338 99.9966 19.0338C101.119 19.0338 102.095 18.8874 102.925 18.5946C103.754 18.3018 104.425 17.8626 104.944 17.2709C105.462 16.6791 105.816 15.941 106.011 15.0565H114.387V15.0626Z" fill="white"></path><path d="M117.199 25.5672V1.31885H125.477V19.0705L123.379 17.2892L135.439 1.31885H144.168L124.77 25.5672H117.205H117.199ZM128.838 14.4099L134.981 9.59074L144.485 25.5611H135.042L128.832 14.4038L128.838 14.4099Z" fill="white"></path><path d="M163.725 13.7997L164.372 12.3112C166.202 12.3783 167.733 12.665 168.965 13.1835C170.191 13.702 171.112 14.4158 171.728 15.3308C172.345 16.2459 172.65 17.3378 172.65 18.6127C172.65 19.8877 172.351 21.1138 171.759 22.1691C171.167 23.2245 170.264 24.0541 169.057 24.658C167.849 25.262 166.342 25.5609 164.53 25.5609H145.485L147.328 13.1164L145.485 1.3125H163.847C166.086 1.3125 167.843 1.83712 169.118 2.88026C170.386 3.9234 171.027 5.37525 171.027 7.22972C171.027 8.28505 170.789 9.27939 170.313 10.2066C169.837 11.1339 169.069 11.9147 168.001 12.5491C166.934 13.1835 165.506 13.5983 163.719 13.7936L163.725 13.7997ZM153.635 23.7552L150.469 20.0341H161.883C162.596 20.0341 163.152 19.845 163.566 19.4667C163.975 19.0885 164.182 18.5761 164.182 17.9295C164.182 17.35 163.981 16.8498 163.585 16.4411C163.188 16.0323 162.596 15.8249 161.822 15.8249H152.251V10.3957H160.589C161.151 10.3957 161.62 10.2249 161.993 9.87722C162.371 9.53561 162.56 9.09027 162.56 8.55345C162.56 8.05933 162.389 7.65065 162.041 7.32734C161.694 7.00403 161.212 6.8454 160.589 6.8454H150.5L153.635 3.12428L155.282 13.1164L153.635 23.7552Z" fill="white"></path><path d="M189.133 26.1464C186.18 26.1464 183.6 25.6157 181.392 24.5603C179.183 23.505 177.463 22.0226 176.237 20.1133C175.011 18.2039 174.395 15.9834 174.395 13.4396C174.395 10.8958 175.011 8.66926 176.237 6.76599C177.463 4.85663 179.183 3.37429 181.392 2.31895C183.6 1.26361 186.18 0.73291 189.133 0.73291C192.085 0.73291 194.666 1.26361 196.874 2.31895C199.082 3.37429 200.802 4.85663 202.029 6.76599C203.255 8.67536 203.871 10.9019 203.871 13.4396C203.871 15.9773 203.255 18.21 202.029 20.1133C200.802 22.0165 199.082 23.505 196.874 24.5603C194.666 25.6157 192.085 26.1464 189.133 26.1464ZM189.133 18.7102C190.444 18.7102 191.579 18.5028 192.524 18.0819C193.47 17.661 194.202 17.0571 194.708 16.2701C195.215 15.4832 195.471 14.5377 195.471 13.4396C195.471 12.3416 195.215 11.3961 194.708 10.6092C194.202 9.82223 193.476 9.21829 192.524 8.79738C191.573 8.37646 190.444 8.16907 189.133 8.16907C187.821 8.16907 186.687 8.37646 185.735 8.79738C184.783 9.21829 184.057 9.82223 183.551 10.6092C183.045 11.3961 182.788 12.3416 182.788 13.4396C182.788 14.5377 183.045 15.4832 183.551 16.2701C184.057 17.0571 184.783 17.661 185.735 18.0819C186.68 18.5028 187.815 18.7102 189.133 18.7102Z" fill="white"></path><path d="M220.628 15.5446V10.4021L232.914 25.5672H222.665L215.424 15.9655H219.627L212.319 25.5672H202.199L214.583 10.4021V15.5446L202.815 1.31885H213.259L219.792 9.95067H215.589L221.988 1.31885H232.304L220.634 15.5446H220.628Z" fill="white"></path><path d="M253.246 0.0986328V6.11344H245.065L248.817 2.36183V25.8354L245.065 22.0838H253.246V28.0986H241.186V0.0986328H253.246Z" fill="white"></path><path d="M255.704 0.0986328H267.764V28.0986H255.704V22.0838H263.885L260.133 25.8354V2.36183L263.885 6.11344H255.704V0.0986328Z" fill="white"></path><path d="M292.433 25.9881C289.737 25.9881 287.364 25.4574 285.302 24.4021C283.246 23.3468 281.642 21.8766 280.501 19.9916C279.361 18.1066 278.787 15.9228 278.787 13.4461C278.787 10.9694 279.361 8.75502 280.501 6.88226C281.642 5.00949 283.246 3.53936 285.302 2.48403C287.358 1.42869 289.737 0.897949 292.433 0.897949C295.13 0.897949 297.496 1.42869 299.546 2.48403C301.596 3.53936 303.188 5.00339 304.329 6.88226C305.469 8.75502 306.043 10.945 306.043 13.4461C306.043 15.9472 305.469 18.1066 304.329 19.9916C303.188 21.8766 301.59 23.3468 299.546 24.4021C297.496 25.4574 295.13 25.9881 292.433 25.9881ZM292.433 23.243C294.568 23.243 296.423 22.8404 297.997 22.0291C299.571 21.2239 300.791 20.0831 301.651 18.6191C302.511 17.155 302.944 15.4287 302.944 13.4461C302.944 11.4635 302.511 9.70668 301.651 8.24263C300.791 6.77858 299.571 5.64394 297.997 4.85091C296.423 4.05179 294.568 3.65526 292.433 3.65526C290.298 3.65526 288.444 4.05179 286.87 4.85091C285.296 5.65004 284.076 6.77858 283.198 8.24263C282.325 9.70668 281.886 11.4452 281.886 13.4461C281.886 15.447 282.325 17.155 283.198 18.6191C284.07 20.0831 285.296 21.2239 286.87 22.0291C288.444 22.8404 290.298 23.243 292.433 23.243Z" fill="white"></path><path d="M308.923 17.7099H311.997C312.15 18.8506 312.601 19.8572 313.352 20.7173C314.108 21.5774 315.102 22.2424 316.341 22.706C317.579 23.1696 319.007 23.4014 320.623 23.4014C323.057 23.4014 324.991 22.9866 326.424 22.157C327.858 21.3273 328.578 20.1988 328.578 18.7774C328.578 17.6794 328.132 16.8376 327.236 16.258C326.339 15.6785 324.783 15.2576 322.563 14.9953L317.872 14.4158C314.919 14.0742 312.796 13.3665 311.503 12.299C310.21 11.2315 309.563 9.79184 309.563 7.98008C309.563 6.53433 309.997 5.27766 310.857 4.21622C311.717 3.14868 312.931 2.33127 314.492 1.75785C316.054 1.18443 317.878 0.903809 319.97 0.903809C322.063 0.903809 323.917 1.22102 325.546 1.85544C327.175 2.48986 328.468 3.37442 329.426 4.50906C330.383 5.6376 330.908 6.97354 330.993 8.50469H327.919C327.791 7.46765 327.382 6.58313 326.693 5.8389C326.003 5.09467 325.082 4.51512 323.929 4.09421C322.776 3.67329 321.434 3.46591 319.903 3.46591C317.683 3.46591 315.914 3.86242 314.584 4.64324C313.26 5.43017 312.595 6.52211 312.595 7.92516C312.595 9.0049 313.034 9.82842 313.907 10.3957C314.779 10.9692 316.261 11.384 318.354 11.6402L322.947 12.2563C325.082 12.5125 326.778 12.8907 328.041 13.3849C329.304 13.879 330.213 14.5439 330.774 15.3735C331.335 16.2032 331.616 17.2524 331.616 18.5273C331.616 20.0585 331.158 21.3822 330.243 22.5047C329.328 23.6271 328.041 24.4873 326.382 25.0912C324.722 25.6951 322.795 25.994 320.593 25.994C318.39 25.994 316.402 25.6463 314.675 24.9448C312.949 24.2433 311.583 23.2733 310.57 22.035C309.557 20.7966 309.008 19.357 308.923 17.716V17.7099Z" fill="white"></path><path d="M335.952 1.31885H338.99V25.5672H335.952V1.31885Z" fill="white"></path><path d="M367.216 24.0483L365.728 24.1459V1.31885H368.668V25.5672H364.758L346.299 2.74021L347.787 2.64262V25.5672H344.847V1.31885H348.787L367.216 24.0483Z" fill="white"></path><path d="M372.06 1.31885H395.924V4.00296H372.06V1.31885ZM382.473 2.7707H385.511V25.5672H382.473V2.7707Z" fill="white"></path><path d="M431.94 16.2214C431.726 18.143 431.043 19.8389 429.902 21.3151C428.762 22.7914 427.267 23.9382 425.425 24.7557C423.583 25.5731 421.478 25.9818 419.105 25.9818C416.433 25.9818 414.091 25.4511 412.071 24.3957C410.058 23.3404 408.485 21.8703 407.368 19.9853C406.246 18.1003 405.685 15.9164 405.685 13.4397C405.685 10.9631 406.246 8.74868 407.368 6.87591C408.491 5.00314 410.058 3.53302 412.071 2.47768C414.085 1.42234 416.433 0.891602 419.105 0.891602C421.478 0.891602 423.583 1.30032 425.425 2.11775C427.267 2.93518 428.762 4.07594 429.902 5.52779C431.043 6.97964 431.72 8.68158 431.94 10.6215H428.865C428.609 9.2001 428.048 7.96785 427.182 6.91862C426.322 5.87548 425.199 5.06417 423.82 4.49685C422.442 3.92343 420.856 3.6428 419.068 3.6428C416.976 3.6428 415.164 4.03933 413.621 4.83846C412.078 5.63759 410.888 6.76613 410.046 8.23018C409.204 9.69423 408.784 11.4328 408.784 13.4336C408.784 15.4345 409.204 17.1426 410.046 18.6066C410.888 20.0707 412.078 21.2114 413.621 22.0166C415.164 22.828 416.976 23.2306 419.068 23.2306C420.856 23.2306 422.442 22.9439 423.82 22.3766C425.199 21.8032 426.322 20.9979 427.182 19.9548C428.042 18.9116 428.603 17.6672 428.865 16.2214H431.94Z" fill="white"></path><path d="M445.39 25.988C443.255 25.988 441.376 25.5915 439.748 24.7923C438.119 23.9932 436.856 22.8769 435.947 21.4311C435.044 19.9854 434.587 18.3261 434.587 16.4533C434.587 14.5806 435.038 12.8969 435.947 11.4756C436.856 10.0542 438.119 8.94397 439.748 8.14484C441.376 7.34571 443.255 6.94922 445.39 6.94922C447.525 6.94922 449.429 7.34571 451.051 8.14484C452.668 8.94397 453.931 10.0542 454.852 11.4756C455.773 12.8969 456.224 14.5562 456.224 16.4533C456.224 18.3505 455.767 19.9854 454.852 21.4311C453.937 22.8769 452.668 23.9993 451.051 24.7923C449.435 25.5915 447.55 25.988 445.39 25.988ZM445.39 23.4991C446.983 23.4991 448.367 23.2124 449.526 22.6451C450.691 22.0716 451.588 21.2603 452.229 20.205C452.863 19.1496 453.18 17.8991 453.18 16.4533C453.18 15.0076 452.863 13.7936 452.229 12.7322C451.594 11.6769 450.691 10.8594 449.526 10.2738C448.361 9.69429 446.983 9.40148 445.39 9.40148C443.798 9.40148 442.444 9.69429 441.267 10.2738C440.089 10.8533 439.193 11.6769 438.564 12.7322C437.936 13.7875 437.625 15.0259 437.625 16.4533C437.625 17.8808 437.936 19.1496 438.564 20.205C439.193 21.2603 440.089 22.0777 441.267 22.6451C442.444 23.2185 443.817 23.4991 445.39 23.4991Z" fill="white"></path></svg> 